<svg width="64px" height="48px" viewBox="0 0 64 48" fill="none" xmlns="http://www.w3.org/2000/svg">
  <path d="M19.15 46.38c-2.67 0-5.06-.75-6.57-2.8-1.32-1.8-1.62-4.5-.87-7.6.65-2.67 2.01-5.28 3.55-6.84a18.79 18.79 0 0 1 12.58-5.31c2.4-.08 4.72.27 6.88 1.04 2.3.82 4.32 2.08 6.01 3.74 1.68 1.66 2.4 3.37 2.17 5.07-.5 3.33-4.59 5.9-8.53 7.97-2.66 1.4-9.58 4.73-15.22 4.73Zm-3.44-16.8.44.46c-1.37 1.37-2.64 3.82-3.22 6.24-.67 2.74-.44 5.07.65 6.55 1.23 1.68 3.25 2.3 5.55 2.3 5.56 0 12.8-3.61 14.66-4.6 3.44-1.8 7.45-4.24 7.86-7.03.19-1.3-.4-2.6-1.8-3.99-6.24-6.14-17.31-5.9-23.7.53l-.44-.45Z" fill="#FADE2A"/>
  <path d="M29.6 40.67c-2.89 0-6.43-.59-9.36-1.21-4.94-1.05-10-2.6-11.47-3.35-5.63-2.86-7.98-7.52-7.18-14.22a20.32 20.32 0 0 1 3.06-8.7 20.99 20.99 0 0 1 6.08-6.08c4.3-2.86 9.96-4.66 16.38-5.2 5.74-.48 11.73.07 16.89 1.56 3.9 1.12 8.32 3.65 11.85 6.75 4 3.52 6.27 7.27 6.38 10.56a7.19 7.19 0 0 1-1.85 5.09c-1.38 1.58-3.52 2.9-6.37 3.96a35.72 35.72 0 0 1-12.2 2.32c-1.79 0-3.52-.17-5.17-.5-.65-.14-1.65-.47-2.92-.89-1.84-.6-4.12-1.34-6.19-1.77-2.84-.58-4.05-.3-4.57.06-.32.2-.48.5-.53.93-.2 2.19 2.26 2.75 6.04 3.35 2.71.43 5.27.83 6.32 2.42.46.7.58 1.56.33 2.56-.18.76-.72 1.35-1.57 1.74-.98.44-2.37.62-3.96.62ZM31.12 3c-6.9 0-14.17 1.46-19.71 5.16a18.74 18.74 0 0 0-8.58 13.88c-.75 6.2 1.32 10.3 6.5 12.94 1.23.62 6.07 2.16 11.15 3.24 6.18 1.31 10.63 1.55 12.53.67.5-.23.8-.53.88-.9l.6.15-.6-.15c.16-.65.1-1.16-.16-1.56-.75-1.13-3.15-1.51-5.47-1.88-1.71-.28-3.49-.55-4.82-1.16-1.66-.76-2.42-1.96-2.27-3.56.07-.8.45-1.45 1.08-1.87 2.15-1.41 6.82-.07 11.83 1.57 1.19.39 2.21.72 2.8.84 4.97 1.02 10.74.42 16.68-1.76 5.03-1.84 7.52-4.47 7.4-7.81-.2-6.21-9.64-13.9-17.32-16.12A46.16 46.16 0 0 0 31.13 3Z" fill="#87C221"/>
  <path d="M35.33 38.5c-3.15 0-6.48-.3-9.73-.85-7.62-1.3-13.93-3.9-15.7-6.43-1.46-2.1-1.9-4.25-1.3-6.42.55-2.03 1.99-4.02 4.27-5.9a21.3 21.3 0 0 1 4.25-2.73 30.73 30.73 0 0 1 16.99-2.53c5.49.76 10.54 2.98 14.62 6.43a14.71 14.71 0 0 1 3.78 4.96 9.96 9.96 0 0 1 .95 5.71c-.29 1.77-1.34 4.16-4.73 5.52-3.2 1.27-7.01 2.01-11.32 2.19-.67.03-1.37.04-2.08.04ZM30 14.62c-4.16 0-8.39.88-12.37 2.7-1.7.77-6.76 3.85-7.83 7.8-.49 1.8-.1 3.6 1.12 5.37.73 1.04 2.57 2.21 5.18 3.27a48.1 48.1 0 0 0 9.7 2.63c3.23.55 6.41.83 9.44.83 4.94 0 9.45-.73 13.02-2.15 2.26-.9 3.63-2.47 3.97-4.54.48-3.03-1.28-6.93-4.31-9.5A27.63 27.63 0 0 0 30 14.63Z" fill="#E13752"/>
  <path d="M18.02 31.79c-.38 0-.75 0-1.12-.02-3.1-.1-5.59-.67-7.4-1.71a6.5 6.5 0 0 1-3.27-4.11c-.62-2.45.17-5.48 2.2-8.54a25.52 25.52 0 0 1 8.2-7.6c4.15-2.44 10.51-5.68 17.32-7.26 7.45-1.73 13.7-1.1 18.6 1.9 2.62 1.6 4 3.51 4.08 5.7.11 2.8-1.93 5.87-5.77 8.66C38.88 27.54 28.12 31.8 18.02 31.8Zm23.6-28.93c-2.3 0-4.76.3-7.39.92-6.65 1.54-12.9 4.72-16.96 7.1a24.23 24.23 0 0 0-7.8 7.22c-1.83 2.76-2.55 5.43-2.02 7.53a5.31 5.31 0 0 0 2.66 3.32c1.64.94 3.94 1.46 6.83 1.55.36.02.72.02 1.08.02 9.83 0 20.35-4.17 32.1-12.73 3.44-2.5 5.35-5.27 5.26-7.58-.08-1.75-1.25-3.33-3.48-4.69a19.45 19.45 0 0 0-10.28-2.66Z" fill="#2C4BFF"/>
</svg>